<?xml version="1.0" encoding="utf-8"?>
<!-- Generator: Adobe Illustrator 17.1.0, SVG Export Plug-In . SVG Version: 6.00 Build 0)  -->
<!DOCTYPE svg PUBLIC "-//W3C//DTD SVG 1.1//EN" "http://www.w3.org/Graphics/SVG/1.1/DTD/svg11.dtd">
<svg version="1.1" id="Layer_1" xmlns="http://www.w3.org/2000/svg" xmlns:xlink="http://www.w3.org/1999/xlink" x="0px" y="0px"
	 viewBox="0 0 119.943 119.943" enable-background="new 0 0 119.943 119.943" xml:space="preserve">
<circle fill="#215C82" cx="59.971" cy="59.971" r="59.971"/>
<circle fill="#FFFFFF" cx="59.971" cy="59.971" r="18.887"/>
<path fill="#FFFFFF" d="M97.221,40.735v-14.35c0-1.543-1.251-2.793-2.793-2.793H81.652c-1.543,0-2.793,1.251-2.793,2.793v14.35
	c0,1.543,1.251,2.793,2.793,2.793h12.776C95.97,43.528,97.221,42.278,97.221,40.735z"/>
<path fill="#FFFFFF" d="M90.552,53.564c0.431,2.068,0.66,4.211,0.66,6.407c0,17.254-13.987,31.241-31.241,31.241
	S28.731,77.225,28.731,59.971c0-2.196,0.229-4.339,0.66-6.407h-6.795v39.892c0,2.282,1.85,4.131,4.131,4.131H93.09
	c2.282,0,4.131-1.85,4.131-4.131V53.564H90.552z"/>
<path fill="#FFFFFF" d="M23.66,43.62h-0.021c-0.576,0-1.043-0.467-1.043-1.043V24.543c0-0.576,0.467-1.043,1.043-1.043h0.021
	c0.576,0,1.043,0.467,1.043,1.043v18.034C24.703,43.153,24.236,43.62,23.66,43.62z"/>
<path fill="#FFFFFF" d="M27.711,43.62h-0.021c-0.576,0-1.043-0.467-1.043-1.043V24.543c0-0.576,0.467-1.043,1.043-1.043h0.021
	c0.576,0,1.043,0.467,1.043,1.043v18.034C28.754,43.153,28.287,43.62,27.711,43.62z"/>
<path fill="#FFFFFF" d="M31.761,43.62H31.74c-0.576,0-1.043-0.467-1.043-1.043V24.543c0-0.576,0.467-1.043,1.043-1.043h0.021
	c0.576,0,1.043,0.467,1.043,1.043v18.034C32.804,43.153,32.337,43.62,31.761,43.62z"/>
<g>
</g>
<g>
</g>
<g>
</g>
<g>
</g>
<g>
</g>
<g>
</g>
</svg>
