<?xml version="1.0" encoding="utf-8"?>
<!-- Generator: Adobe Illustrator 17.1.0, SVG Export Plug-In . SVG Version: 6.00 Build 0)  -->
<!DOCTYPE svg PUBLIC "-//W3C//DTD SVG 1.1//EN" "http://www.w3.org/Graphics/SVG/1.1/DTD/svg11.dtd">
<svg version="1.1" id="Layer_1" xmlns="http://www.w3.org/2000/svg" xmlns:xlink="http://www.w3.org/1999/xlink" x="0px" y="0px"
	 viewBox="324 234 144 144" enable-background="new 324 234 144 144" xml:space="preserve">
<circle fill="#FFFFFF" cx="396.3" cy="306.3" r="72.1"/>
<circle cx="396.3" cy="306.3" r="22.7"/>
<path d="M441.1,283.2v-17.2c0-1.9-1.5-3.4-3.4-3.4h-15.4c-1.9,0-3.4,1.5-3.4,3.4v17.2c0,1.9,1.5,3.4,3.4,3.4h15.4
	C439.6,286.5,441.1,285,441.1,283.2z"/>
<path d="M433,298.6c0.5,2.5,0.8,5.1,0.8,7.7c0,20.7-16.8,37.5-37.5,37.5s-37.5-16.8-37.5-37.5c0-2.6,0.3-5.2,0.8-7.7h-8.2v47.9
	c0,2.7,2.2,5,5,5h79.8c2.7,0,5-2.2,5-5v-47.9H433z"/>
<path d="M352.7,286.7L352.7,286.7c-0.7,0-1.3-0.6-1.3-1.2v-21.7c0-0.7,0.6-1.2,1.2-1.2h0c0.7,0,1.2,0.6,1.2,1.2v21.7
	C353.9,286.1,353.4,286.7,352.7,286.7z"/>
<path d="M357.5,286.7L357.5,286.7c-0.7,0-1.3-0.6-1.3-1.2v-21.7c0-0.7,0.6-1.2,1.2-1.2h0c0.7,0,1.2,0.6,1.2,1.2v21.7
	C358.8,286.1,358.2,286.7,357.5,286.7z"/>
<path d="M362.4,286.7L362.4,286.7c-0.7,0-1.3-0.6-1.3-1.2v-21.7c0-0.7,0.6-1.2,1.2-1.2h0c0.7,0,1.2,0.6,1.2,1.2v21.7
	C363.7,286.1,363.1,286.7,362.4,286.7z"/>
</svg>
