<?xml version="1.0" encoding="utf-8"?>
<!-- Generator: Adobe Illustrator 17.1.0, SVG Export Plug-In . SVG Version: 6.00 Build 0)  -->
<!DOCTYPE svg PUBLIC "-//W3C//DTD SVG 1.1//EN" "http://www.w3.org/Graphics/SVG/1.1/DTD/svg11.dtd">
<svg version="1.1" id="Layer_1" xmlns="http://www.w3.org/2000/svg" xmlns:xlink="http://www.w3.org/1999/xlink" x="0px" y="0px"
	 viewBox="0 0 123.819 123.819" enable-background="new 0 0 123.819 123.819" xml:space="preserve">
<g>
	<defs>
		<circle id="SVGID_85_" cx="61.91" cy="61.91" r="61.91"/>
	</defs>
	<clipPath id="SVGID_1_">
		<use xlink:href="#SVGID_85_"  overflow="visible"/>
	</clipPath>
	<g clip-path="url(#SVGID_1_)">
		<path fill="#CB2128" d="M62.583-0.849c-34.739,0-62.904,28.163-62.904,62.903c0,25.757,15.489,47.885,37.652,57.614
			c-0.177-4.392-0.032-9.665,1.095-14.444c1.209-5.107,8.094-34.276,8.094-34.276s-2.01-4.016-2.01-9.953
			c0-9.321,5.403-16.283,12.131-16.283c5.722,0,8.486,4.298,8.486,9.443c0,5.752-3.668,14.355-5.555,22.324
			c-1.576,6.673,3.346,12.115,9.928,12.115c11.918,0,19.945-15.307,19.945-33.444c0-13.786-9.286-24.105-26.174-24.105
			c-19.081,0-30.968,14.23-30.968,30.124c0,5.48,1.616,9.345,4.147,12.337c1.164,1.375,1.325,1.928,0.904,3.506
			c-0.302,1.157-0.995,3.944-1.281,5.048c-0.419,1.593-1.71,2.162-3.15,1.574c-8.789-3.588-12.882-13.212-12.882-24.032
			c0-17.869,15.07-39.295,44.957-39.295c24.016,0,39.822,17.379,39.822,36.034c0,24.676-13.718,43.111-33.94,43.111
			c-6.791,0-13.18-3.671-15.368-7.84c0,0-3.652,14.493-4.425,17.292c-1.333,4.85-3.944,9.697-6.331,13.475
			c5.657,1.67,11.634,2.58,17.828,2.58c34.736,0,62.9-28.163,62.9-62.904C125.484,27.314,97.319-0.849,62.583-0.849L62.583-0.849z"
			/>
	</g>
</g>
<g>
</g>
<g>
</g>
<g>
</g>
<g>
</g>
<g>
</g>
<g>
</g>
</svg>
