<?xml version="1.0" encoding="utf-8"?>
<!-- Generator: Adobe Illustrator 17.1.0, SVG Export Plug-In . SVG Version: 6.00 Build 0)  -->
<!DOCTYPE svg PUBLIC "-//W3C//DTD SVG 1.1//EN" "http://www.w3.org/Graphics/SVG/1.1/DTD/svg11.dtd">
<svg version="1.1" id="Layer_1" xmlns="http://www.w3.org/2000/svg" xmlns:xlink="http://www.w3.org/1999/xlink" x="0px" y="0px"
	 viewBox="324 234 144 144" enable-background="new 324 234 144 144" xml:space="preserve">
<circle cx="396.2" cy="307.1" r="70.7"/>
<path fill="#FFFFFF" d="M396.2,234.3c-39.7,0-71.8,32.2-71.8,71.8c0,29.4,17.7,54.7,43,65.8c-0.2-5,0-11,1.2-16.5
	c1.4-5.8,9.2-39.1,9.2-39.1s-2.3-4.6-2.3-11.4c0-10.7,6.2-18.6,13.9-18.6c6.5,0,9.7,4.9,9.7,10.8c0,6.6-4.2,16.4-6.4,25.5
	c-1.8,7.6,3.8,13.8,11.3,13.8c13.6,0,22.8-17.5,22.8-38.2c0-15.7-10.6-27.5-29.9-27.5c-21.8,0-35.4,16.2-35.4,34.4
	c0,6.3,1.8,10.7,4.7,14.1c1.3,1.6,1.5,2.2,1,4c-0.3,1.3-1.1,4.5-1.5,5.8c-0.5,1.8-2,2.5-3.6,1.8c-10-4.1-14.7-15.1-14.7-27.4
	c0-20.4,17.2-44.9,51.3-44.9c27.4,0,45.5,19.8,45.5,41.1c0,28.2-15.7,49.2-38.8,49.2c-7.8,0-15-4.2-17.6-9c0,0-4.2,16.5-5.1,19.8
	c-1.5,5.5-4.5,11.1-7.2,15.4c6.5,1.9,13.3,3,20.4,3c39.7,0,71.8-32.2,71.8-71.8C468,266.5,435.9,234.3,396.2,234.3L396.2,234.3z"/>
</svg>
