<?xml version="1.0" encoding="utf-8"?>
<!-- Generator: Adobe Illustrator 17.1.0, SVG Export Plug-In . SVG Version: 6.00 Build 0)  -->
<!DOCTYPE svg PUBLIC "-//W3C//DTD SVG 1.1//EN" "http://www.w3.org/Graphics/SVG/1.1/DTD/svg11.dtd">
<svg version="1.1" id="Layer_1" xmlns="http://www.w3.org/2000/svg" xmlns:xlink="http://www.w3.org/1999/xlink" x="0px" y="0px"
	 viewBox="0 0 792 612" enable-background="new 0 0 792 612" xml:space="preserve">
<circle fill="#FFFFFF" cx="396" cy="306" r="306"/>
<g>
	<g>
		<defs>
			<circle id="SVGID_1_" cx="396" cy="306" r="306"/>
		</defs>
		<clipPath id="SVGID_2_">
			<use xlink:href="#SVGID_1_"  overflow="visible"/>
		</clipPath>
		<g clip-path="url(#SVGID_2_)">
			<path fill="#CB2128" d="M399.3-4.2C227.6-4.2,88.4,135,88.4,306.7c0,127.3,76.6,236.7,186.1,284.8c-0.9-21.7-0.2-47.8,5.4-71.4
				c6-25.2,40-169.4,40-169.4s-9.9-19.8-9.9-49.2c0-46.1,26.7-80.5,60-80.5c28.3,0,41.9,21.2,41.9,46.7c0,28.4-18.1,71-27.5,110.3
				c-7.8,33,16.5,59.9,49.1,59.9c58.9,0,98.6-75.7,98.6-165.3c0-68.1-45.9-119.1-129.4-119.1c-94.3,0-153.1,70.3-153.1,148.9
				c0,27.1,8,46.2,20.5,61c5.8,6.8,6.5,9.5,4.5,17.3c-1.5,5.7-4.9,19.5-6.3,25c-2.1,7.9-8.5,10.7-15.6,7.8
				c-43.4-17.7-63.7-65.3-63.7-118.8c0-88.3,74.5-194.2,222.2-194.2c118.7,0,196.8,85.9,196.8,178.1c0,122-67.8,213.1-167.8,213.1
				c-33.6,0-65.1-18.1-76-38.8c0,0-18.1,71.6-21.9,85.5c-6.6,24-19.5,47.9-31.3,66.6c28,8.3,57.5,12.8,88.1,12.8
				c171.7,0,310.9-139.2,310.9-310.9C710.2,135,571-4.2,399.3-4.2L399.3-4.2z"/>
		</g>
	</g>
</g>
</svg>
