<?xml version="1.0" encoding="utf-8"?>
<!-- Generator: Adobe Illustrator 17.1.0, SVG Export Plug-In . SVG Version: 6.00 Build 0)  -->
<!DOCTYPE svg PUBLIC "-//W3C//DTD SVG 1.1//EN" "http://www.w3.org/Graphics/SVG/1.1/DTD/svg11.dtd">
<svg version="1.1" id="Layer_1" xmlns="http://www.w3.org/2000/svg" xmlns:xlink="http://www.w3.org/1999/xlink" x="0px" y="0px"
	 viewBox="324 234 144 144" enable-background="new 324 234 144 144" xml:space="preserve">
<g>
	<g>
		<g>
			<defs>
				<circle id="SVGID_1_" cx="396" cy="306" r="73"/>
			</defs>
			<clipPath id="SVGID_2_">
				<use xlink:href="#SVGID_1_"  overflow="visible"/>
			</clipPath>
			<g clip-path="url(#SVGID_2_)">
				<polygon fill="#FFFFFF" points="474.7,381.8 321.8,381.8 321.8,228.9 474.7,228.9 				"/>
				<path d="M449.2,273.7c-3.7,1.7-7.8,2.8-12,3.3c4.3-2.6,7.6-6.7,9.2-11.6c-4,2.4-8.5,4.1-13.3,5.1c-3.8-4.1-9.3-6.6-15.3-6.6
					c-11.5,0-20.9,9.4-20.9,20.9c0,1.6,0.2,3.2,0.5,4.8c-17.4-0.9-32.8-9.2-43.1-21.9c-1.8,3.1-2.8,6.7-2.8,10.5
					c0,7.3,3.7,13.7,9.3,17.4c-3.4-0.1-6.7-1-9.5-2.6c0,0.1,0,0.2,0,0.3c0,10.1,7.2,18.6,16.8,20.5c-1.8,0.5-3.6,0.7-5.5,0.7
					c-1.3,0-2.6-0.1-3.9-0.4c2.7,8.3,10.4,14.4,19.5,14.5c-7.2,5.6-16.2,8.9-26,8.9c-1.7,0-3.4-0.1-5-0.3c9.3,5.9,20.3,9.4,32.1,9.4
					c38.5,0,59.5-31.9,59.5-59.5c0-0.9,0-1.8-0.1-2.7C442.9,281.6,446.4,277.9,449.2,273.7L449.2,273.7z"/>
			</g>
		</g>
	</g>
</g>
</svg>
