<?xml version="1.0" encoding="utf-8"?>
<!-- Generator: Adobe Illustrator 17.1.0, SVG Export Plug-In . SVG Version: 6.00 Build 0)  -->
<!DOCTYPE svg PUBLIC "-//W3C//DTD SVG 1.1//EN" "http://www.w3.org/Graphics/SVG/1.1/DTD/svg11.dtd">
<svg version="1.1" id="Layer_1" xmlns="http://www.w3.org/2000/svg" xmlns:xlink="http://www.w3.org/1999/xlink" x="0px" y="0px"
	 viewBox="0 0 123.819 123.819" enable-background="new 0 0 123.819 123.819" xml:space="preserve">
<g>
	<defs>
		<circle id="SVGID_83_" cx="61.91" cy="61.91" r="61.91"/>
	</defs>
	<clipPath id="SVGID_1_">
		<use xlink:href="#SVGID_83_"  overflow="visible"/>
	</clipPath>
	<g clip-path="url(#SVGID_1_)">
		<polygon fill="#2FAAE1" points="128.675,126.204 -1.027,126.204 -1.027,-3.498 128.675,-3.498 128.675,126.204 		"/>
		<path fill="#FFFFFF" d="M107.058,34.537c-3.181,1.411-6.6,2.365-10.188,2.793c3.662-2.195,6.475-5.672,7.8-9.815
			c-3.428,2.033-7.224,3.509-11.265,4.305c-3.236-3.448-7.846-5.602-12.949-5.602c-9.797,0-17.74,7.943-17.74,17.74
			c0,1.39,0.157,2.744,0.46,4.043c-14.744-0.74-27.815-7.802-36.565-18.535c-1.527,2.62-2.402,5.667-2.402,8.918
			c0,6.155,3.132,11.584,7.892,14.766c-2.908-0.092-5.643-0.89-8.035-2.219c-0.002,0.074-0.002,0.148-0.002,0.223
			c0,8.595,6.115,15.765,14.23,17.395c-1.488,0.405-3.056,0.622-4.674,0.622c-1.143,0-2.254-0.112-3.338-0.318
			C32.54,75.9,39.091,81.03,46.854,81.172c-6.071,4.758-13.72,7.594-22.032,7.594c-1.432,0-2.844-0.084-4.232-0.248
			c7.851,5.034,17.176,7.971,27.194,7.971c32.63,0,50.474-27.032,50.474-50.475c0-0.769-0.018-1.534-0.052-2.295
			C101.672,41.219,104.679,38.094,107.058,34.537L107.058,34.537z"/>
	</g>
</g>
<g>
</g>
<g>
</g>
<g>
</g>
<g>
</g>
<g>
</g>
<g>
</g>
</svg>
