<?xml version="1.0" encoding="utf-8"?>
<!-- Generator: Adobe Illustrator 17.1.0, SVG Export Plug-In . SVG Version: 6.00 Build 0)  -->
<!DOCTYPE svg PUBLIC "-//W3C//DTD SVG 1.1//EN" "http://www.w3.org/Graphics/SVG/1.1/DTD/svg11.dtd">
<svg version="1.1" id="Layer_1" xmlns="http://www.w3.org/2000/svg" xmlns:xlink="http://www.w3.org/1999/xlink" x="0px" y="0px"
	 viewBox="0 0 432 360" enable-background="new 0 0 432 360" xml:space="preserve">
<g>
	<text transform="matrix(1 0 0 1 237.9906 239.9321)"><tspan x="0" y="0" fill="#231F20" font-family="'TallDeco-Normal'" font-size="86.3308" letter-spacing="-6">T</tspan><tspan x="25.468" y="0" fill="#231F20" font-family="'TallDeco-Normal'" font-size="86.3308" letter-spacing="-3">a</tspan><tspan x="52.574" y="0" fill="#231F20" font-family="'TallDeco-Normal'" font-size="86.3308" letter-spacing="-6">l</tspan><tspan x="75.021" y="0" fill="#231F20" font-family="'TallDeco-Normal'" font-size="86.3308">l</tspan></text>
	<text transform="matrix(1 0 0 1 162.4291 238.7075)" fill="#A91E2F" font-family="'EdwardianScriptITC'" font-size="86.3308">alk</text>
	<text transform="matrix(1 0 0 1 18.1693 237.6099)" fill="#A91E2F" font-family="'EdwardianScriptITC'" font-size="171.8548">W</text>
	<g id="vqZ4tj_3_">
		<g>
			<path fill="#A91E2F" d="M385.597,225.315c0.312,0.007,0.745,0.267,0.902,0.538c0.546,0.945-0.247,3.79-1.047,4.602
				c-0.974,0.989-1.741,2.184-2.725,3.16c-1.563,1.551-3.28,2.947-4.848,4.494c-3.823,3.772-8.84,3.202-13.444,3.296
				c-3.007,0.062-5.733-1.874-6.987-5.042c-1.366-3.45-2.756-6.891-4.048-10.369c-1.938-5.22-4.601-9.969-8.665-13.849
				c-0.587-0.561-1.201-1.093-1.803-1.638c-0.148,0.032-0.297,0.063-0.445,0.095c-0.328,2.702-0.88,5.399-0.938,8.107
				c-0.123,5.733,0.039,11.472,0.016,17.208c-0.004,1.136-0.16,2.329-0.564,3.373c-0.137,0.353-1.255,0.327-2.143,0.522
				c-0.254-3.259-0.601-6.18-0.689-9.108c-0.309-10.342-2.165-20.307-6.657-29.719c-0.584-1.224-0.692-2.803-0.598-4.19
				c0.13-1.934,0.623-3.848,1.033-5.755c0.181-0.844,0.654-1.63,0.794-2.476c0.269-1.62,1.147-2.501,2.731-2.874
				c1.035-0.244,2.166-2.103,2.033-3.073c-0.141-1.03-0.082-1.089,1.064-1.084c0.106-0.554,0.212-1.104,0.3-1.567
				c0.675-0.181,1.285-0.255,1.811-0.504c1.524-0.721,2.829-0.282,4.149,0.551c3.914,2.47,7.778,5.037,11.809,7.302
				c3.009,1.691,6.206,3.075,9.397,4.41c2.882,1.206,2.972,1.094,3.019,4.232c0.056,3.76,0.103,7.523,0.008,11.281
				c-0.062,2.432,0.992,4.465,1.824,6.62c0.503,1.302,0.615,2.751,0.957,4.12c0.09,0.358,0.31,0.834,0.6,0.964
				c1,0.448,2.086,0.706,3.087,1.153c0.892,0.399,1.676,1.049,2.577,1.414c1.249,0.506,3.19,2.084,3.629,2.657"/>
		</g>
	</g>
	<g>
		<path fill="#A91E2F" d="M235.722,139.286c0,0,0.58-0.566,1.669-1.628c1.106-1.043,2.725-2.583,4.891-4.426
			c2.163-1.844,4.82-4.059,8.01-6.42c3.185-2.366,6.856-4.957,11.067-7.48c4.206-2.523,8.898-5.1,14.171-7.227
			c2.631-1.07,5.393-2.062,8.298-2.863c2.899-0.816,5.943-1.447,9.108-1.744c3.157-0.322,6.442-0.315,9.743,0.14
			c3.299,0.455,6.619,1.389,9.726,2.883c6.251,3.024,11.313,8.048,15.065,13.73c3.744,5.716,6.16,12.052,7.971,18.314
			c1.811,6.28,2.883,12.582,3.671,18.668c0.389,3.045,0.712,6.041,0.958,8.976c0.23,2.936,0.406,5.807,0.547,8.6
			c0.14,2.793,0.246,5.509,0.326,8.134c0.041,2.625,0.081,5.161,0.118,7.596c0.061,4.866,0.034,9.323-0.013,13.272
			c-0.026,3.948-0.099,7.39-0.149,10.225c-0.125,5.671-0.196,8.911-0.196,8.911s-0.079-0.807-0.227-2.32
			c-0.14-1.513-0.373-3.732-0.594-6.559c-0.476-5.652-1.053-13.735-1.742-23.407c-0.193-2.415-0.395-4.93-0.604-7.533
			c-0.204-2.601-0.432-5.287-0.699-8.041c-0.547-5.508-1.218-11.296-2.131-17.224c-0.929-5.924-2.192-11.978-3.922-17.945
			c-1.754-5.952-4.152-11.791-7.479-16.948c-1.675-2.563-3.577-4.961-5.772-7.017c-1.117-1.05-2.183-1.94-3.457-2.86
			c-1.213-0.841-2.467-1.614-3.78-2.264c-5.239-2.653-11.234-3.452-16.991-3.016c-5.773,0.436-11.354,1.852-16.471,3.695
			c-5.121,1.853-9.852,4.022-14.106,6.254c-4.248,2.246-8.071,4.477-11.387,6.576c-3.31,2.108-6.164,4.015-8.469,5.651
			c-2.302,1.64-4.108,2.943-5.312,3.867C236.361,138.789,235.722,139.286,235.722,139.286z"/>
	</g>
	<path fill="#A91E2F" d="M331.223,200.285c0,0-2.604-7.454,2.335-13.741c4.939-6.287,3.339-19.161,3.339-19.161l3.004,18.616
		L331.223,200.285z"/>
	<path fill="#A91E2F" d="M348.792,182.627c0,0-9.47-5.331-10.489-15.916l0.454,13.799L348.792,182.627z"/>
</g>
</svg>
