<?xml version="1.0" encoding="utf-8"?>
<!-- Generator: Adobe Illustrator 17.1.0, SVG Export Plug-In . SVG Version: 6.00 Build 0)  -->
<!DOCTYPE svg PUBLIC "-//W3C//DTD SVG 1.1//EN" "http://www.w3.org/Graphics/SVG/1.1/DTD/svg11.dtd">
<svg version="1.1" id="Layer_1" xmlns="http://www.w3.org/2000/svg" xmlns:xlink="http://www.w3.org/1999/xlink" x="0px" y="0px"
	 viewBox="324 234 144 144" enable-background="new 324 234 144 144" xml:space="preserve">
<g>
	<g>
		<circle id="SVGID_163_" fill="#FFFFFF" cx="396" cy="306" r="72"/>
	</g>
	<g>
		<g>
			<defs>
				<circle id="SVGID_1_" cx="396" cy="306" r="72"/>
			</defs>
			<clipPath id="SVGID_2_">
				<use xlink:href="#SVGID_1_"  overflow="visible"/>
			</clipPath>
			<g clip-path="url(#SVGID_2_)">
				<polygon fill="#FFFFFF" points="458.7,367.6 333.3,367.6 333.3,242.1 458.7,242.1 				"/>
				<path d="M387.3,254.4h-5.7l-3.9,14.8l-4-14.8h-6c1.2,3.5,2.4,7,3.6,10.5c1.8,5.3,2.9,9.2,3.5,12v15.3h5.6v-15.3L387.3,254.4
					L387.3,254.4z M402.4,283v-9.9c0-3-0.5-5.2-1.6-6.6c-1.4-1.9-3.4-2.9-6-2.9c-2.5,0-4.5,1-5.9,2.9c-1.1,1.4-1.6,3.6-1.6,6.6v9.9
					c0,3,0.5,5.2,1.6,6.6c1.4,1.9,3.4,2.9,5.9,2.9s4.5-1,6-2.9C401.9,288.2,402.4,286,402.4,283L402.4,283z M397.3,284
					c0,2.6-0.8,3.9-2.4,3.9s-2.4-1.3-2.4-3.9v-11.8c0-2.6,0.8-3.9,2.4-3.9c1.6,0,2.4,1.3,2.4,3.9V284L397.3,284z M421.2,292.1V264
					h-5.1v21.5c-1.1,1.6-2.2,2.4-3.2,2.4c-0.7,0-1.1-0.4-1.2-1.2c-0.1-0.2-0.1-0.8-0.1-2V264h-5.1v22.2c0,2,0.2,3.3,0.4,4.2
					c0.5,1.4,1.6,2.1,3.3,2.1c1.9,0,3.8-1.1,5.8-3.5v3.1H421.2L421.2,292.1z"/>
				<path d="M437.7,326.3c0,6.5,0,13.4-1.5,19.7c-1,4.4-4.7,7.7-9,8.2c-10.4,1.2-20.8,1.2-31.2,1.2s-20.9,0-31.2-1.2
					c-4.4-0.5-8-3.8-9-8.2c-1.5-6.3-1.5-13.2-1.5-19.7c0-6.5,0-13.4,1.5-19.7c1-4.4,4.7-7.7,9-8.2c10.4-1.2,20.8-1.2,31.2-1.2
					s20.9,0,31.2,1.2c4.4,0.5,8,3.8,9,8.2C437.7,312.9,437.7,319.8,437.7,326.3L437.7,326.3z"/>
				<path fill="#FFFFFF" d="M407.4,336.4c0,2.5-0.7,3.7-2.2,3.7c-0.8,0-1.7-0.4-2.5-1.2v-17c0.8-0.8,1.7-1.2,2.5-1.2
					c1.5,0,2.2,1.3,2.2,3.8V336.4L407.4,336.4z M426.5,327.1h-5.1v-2.6c0-2.6,0.8-3.9,2.5-3.9c1.7,0,2.5,1.3,2.5,3.9V327.1
					L426.5,327.1z M378.1,312.2V307h-17.6v5.3h5.9v32.1h5.6v-32.1H378.1L378.1,312.2z M388.3,344.3v-3c-2,2.3-3.9,3.4-5.8,3.4
					c-1.6,0-2.8-0.7-3.2-2.1c-0.3-0.8-0.4-2.2-0.4-4.1v-22h5V337c0,1.2,0,1.8,0,2c0.1,0.8,0.5,1.2,1.2,1.2c1,0,2.1-0.8,3.2-2.4
					v-21.3h5.1v27.8H388.3L388.3,344.3z M412.5,336v-11.1c0-2.6-0.2-4.5-0.5-5.6c-0.7-2.1-2-3.1-4-3.1c-1.9,0-3.6,1-5.2,3V307h-5
					v37.4h5v-2.7c1.7,2.1,3.4,3.1,5.2,3.1c2,0,3.4-1.1,4-3.1C412.3,340.4,412.5,338.5,412.5,336L412.5,336z M431.5,335.4v-0.7h-5.2
					c0,2-0.1,3.1-0.1,3.4c-0.3,1.3-1,2-2.3,2c-1.7,0-2.6-1.3-2.6-3.9v-4.9h10.1v-5.8c0-3-0.5-5.2-1.6-6.6c-1.4-1.9-3.4-2.8-6-2.8
					c-2.6,0-4.6,0.9-6,2.8c-1.1,1.4-1.6,3.6-1.6,6.6v9.7c0,2.9,0.5,5.2,1.6,6.5c1.5,1.9,3.5,2.8,6.1,2.8c2.6,0,4.7-1,6.1-3
					c0.6-0.9,1-1.9,1.2-3C431.4,338.2,431.5,337,431.5,335.4L431.5,335.4z"/>
			</g>
		</g>
	</g>
</g>
</svg>
