<?xml version="1.0" encoding="utf-8"?>
<!-- Generator: Adobe Illustrator 17.1.0, SVG Export Plug-In . SVG Version: 6.00 Build 0)  -->
<!DOCTYPE svg PUBLIC "-//W3C//DTD SVG 1.1//EN" "http://www.w3.org/Graphics/SVG/1.1/DTD/svg11.dtd">
<svg version="1.1" id="Layer_1" xmlns="http://www.w3.org/2000/svg" xmlns:xlink="http://www.w3.org/1999/xlink" x="0px" y="0px"
	 viewBox="0 0 123.819 123.819" enable-background="new 0 0 123.819 123.819" xml:space="preserve">
<g>
	<defs>
		<circle id="SVGID_163_" cx="61.91" cy="61.91" r="61.91"/>
	</defs>
	<use xlink:href="#SVGID_163_"  overflow="visible" fill="#CD352D"/>
	<clipPath id="SVGID_1_">
		<use xlink:href="#SVGID_163_"  overflow="visible"/>
	</clipPath>
	<g clip-path="url(#SVGID_1_)">
		<polygon fill="#CD352D" points="115.855,114.889 7.964,114.889 7.964,6.997 115.855,6.997 115.855,114.889 		"/>
		<path fill="#FFFFFF" d="M54.396,17.538h-4.914l-3.315,12.744l-3.448-12.744h-5.116c1.023,3.006,2.092,6.031,3.116,9.041
			c1.557,4.526,2.531,7.937,2.97,10.268v13.144h4.861V36.847L54.396,17.538L54.396,17.538z M67.386,42.16v-8.472
			c0-2.584-0.444-4.472-1.362-5.697c-1.214-1.651-2.917-2.479-5.112-2.479c-2.183,0-3.892,0.828-5.103,2.479
			c-0.933,1.225-1.372,3.113-1.372,5.697v8.472c0,2.571,0.439,4.475,1.372,5.69c1.211,1.648,2.921,2.476,5.103,2.476
			c2.195,0,3.898-0.828,5.112-2.476C66.942,46.636,67.386,44.732,67.386,42.16L67.386,42.16z M63.001,42.986
			c0,2.238-0.677,3.357-2.089,3.357c-1.415,0-2.093-1.119-2.093-3.357V32.811c0-2.238,0.678-3.352,2.093-3.352
			c1.413,0,2.089,1.114,2.089,3.352V42.986L63.001,42.986z M83.592,49.991V25.807h-4.383v18.484
			c-0.974,1.372-1.894,2.052-2.77,2.052c-0.589,0-0.931-0.347-1.026-1.027c-0.055-0.142-0.055-0.677-0.055-1.706V25.807h-4.368
			V44.93c0,1.706,0.148,2.865,0.39,3.595c0.435,1.226,1.409,1.801,2.821,1.801c1.598,0,3.261-0.973,5.007-2.975v2.639H83.592
			L83.592,49.991z"/>
		<path fill="#FFFFFF" d="M97.787,79.342c0,5.594-0.004,11.53-1.258,16.963c-0.876,3.814-3.996,6.628-7.755,7.05
			c-8.898,0.993-17.906,0.998-26.87,0.993c-8.966,0.006-17.972,0-26.869-0.993c-3.759-0.422-6.879-3.236-7.755-7.05
			c-1.249-5.433-1.249-11.369-1.249-16.963c0-5.6,0.013-11.524,1.264-16.965c0.876-3.813,3.996-6.628,7.755-7.047
			c8.898-0.996,17.904-0.998,26.87-0.996c8.963-0.002,17.971,0,26.869,0.996c3.759,0.419,6.879,3.234,7.755,7.047
			C97.793,67.818,97.787,73.742,97.787,79.342L97.787,79.342z"/>
		<path fill="#CD352D" d="M46.499,67.27v-4.524H31.377v4.524h5.102v27.595h4.822V67.27H46.499L46.499,67.27z M55.26,94.865v-2.609
			c-1.721,1.976-3.359,2.94-4.954,2.94c-1.398,0-2.362-0.567-2.793-1.781c-0.239-0.728-0.384-1.866-0.384-3.558V70.933h4.335v17.62
			c0,1.014,0,1.546,0.04,1.686c0.105,0.672,0.434,1.013,1.014,1.013c0.87,0,1.783-0.672,2.742-2.027V70.933h4.342v23.932H55.26
			L55.26,94.865z M71.739,88.027c0,2.161-0.637,3.225-1.887,3.225c-0.712,0-1.437-0.341-2.162-1.064V75.6
			c0.725-0.712,1.45-1.054,2.162-1.054c1.25,0,1.887,1.109,1.887,3.267V88.027L71.739,88.027z M76.073,87.686v-9.533
			c0-2.263-0.148-3.848-0.437-4.812c-0.579-1.792-1.738-2.7-3.467-2.7c-1.592,0-3.078,0.874-4.48,2.594v-10.49h-4.335v32.119h4.335
			v-2.318c1.45,1.791,2.937,2.649,4.48,2.649c1.729,0,2.888-0.909,3.467-2.69C75.925,91.494,76.073,89.899,76.073,87.686
			L76.073,87.686z M88.104,80.08H83.77v-2.212c0-2.213,0.726-3.322,2.175-3.322c1.432,0,2.159,1.109,2.159,3.322V80.08L88.104,80.08
			z M92.442,87.209v-0.631h-4.428c0,1.741-0.052,2.698-0.092,2.935c-0.25,1.159-0.874,1.741-1.94,1.741
			c-1.487,0-2.212-1.104-2.212-3.321v-4.24h8.672v-4.956c0-2.56-0.437-4.431-1.345-5.64c-1.214-1.641-2.939-2.454-5.115-2.454
			c-2.212,0-3.943,0.813-5.193,2.454c-0.923,1.209-1.34,3.08-1.34,5.64v8.383c0,2.538,0.472,4.431,1.392,5.625
			c1.251,1.636,2.977,2.454,5.251,2.454c2.263,0,4.041-0.858,5.244-2.595c0.524-0.767,0.864-1.64,1.01-2.598
			C92.387,89.567,92.442,88.603,92.442,87.209L92.442,87.209z"/>
	</g>
</g>
<g>
</g>
<g>
</g>
<g>
</g>
<g>
</g>
<g>
</g>
<g>
</g>
</svg>
